<svg width="103" height="21" viewBox="0 0 103 21" fill="none" xmlns="http://www.w3.org/2000/svg">
<path d="M14.1617 12.2809C14.0511 11.9489 13.8298 11.617 13.4979 11.2851C13.166 10.9532 12.9447 10.7319 12.834 10.5106C12.7234 10.4 12.3915 10.1787 11.9489 9.84681C11.5064 9.51489 11.2851 9.40425 11.1745 9.29362C11.0638 9.29362 10.7319 9.18298 10.1787 8.85106C9.73617 8.62979 9.40425 8.51915 9.40425 8.51915C7.63404 7.5234 6.52766 6.97021 6.19574 6.6383C5.53191 6.08511 5.08936 5.42128 5.08936 4.64681C5.08936 3.31915 5.86383 2.65532 7.5234 2.65532C8.62979 2.65532 9.84681 3.31915 11.0638 4.53617C11.2851 4.75745 11.617 4.86809 11.9489 4.86809C12.3915 4.86809 12.7234 4.64681 12.9447 4.42553C13.6085 3.54043 13.6085 2.65532 12.834 1.88085C12.5021 1.4383 11.7277 1.10638 10.7319 0.66383C9.73617 0.221277 8.51915 0 7.08085 0C5.2 0 3.65106 0.553191 2.3234 1.54894C0.995745 2.54468 0.331915 3.98298 0.331915 5.75319C0.331915 6.52766 0.442553 7.19149 0.774468 7.85532C0.995745 8.51915 1.32766 9.07234 1.65957 9.40425C1.99149 9.84681 2.54468 10.2894 3.09787 10.6213C3.7617 11.0638 4.31489 11.3957 4.64681 11.617C5.08936 11.8383 5.64255 12.0596 6.41702 12.5021C7.74468 13.0553 8.62979 13.6085 8.9617 14.0511C9.29362 14.4936 9.51489 15.1574 9.51489 15.8213C9.51489 16.4851 9.29362 17.0383 8.85106 17.4809C8.40851 17.9234 7.74468 18.1447 6.85957 18.1447C6.52766 18.1447 6.19574 18.1447 5.86383 18.034C5.53192 17.9234 5.2 17.8128 4.97872 17.5915C4.75745 17.3702 4.53617 17.2596 4.31489 17.1489C4.20426 17.0383 3.98298 16.9277 3.7617 16.7064L3.42979 16.3745C2.76596 15.4894 1.88085 15.2681 1.10638 15.4894C0.774468 15.6 0.442553 15.8213 0.221277 16.2638C0.110638 16.5957 0 17.0383 0 17.3702C0 18.034 0.553191 18.8085 1.65957 19.4723C2.21277 19.9149 2.98723 20.2468 4.09362 20.4681C5.2 20.6894 6.19574 20.8 7.19149 20.8C8.51915 20.8 9.62553 20.5787 10.7319 20.2468C11.8383 19.8043 12.7234 19.1404 13.4979 18.2553C14.2723 17.2596 14.6043 16.1532 14.6043 14.8255C14.6043 14.383 14.6043 13.8298 14.4936 13.4979C14.383 12.9447 14.2723 12.6128 14.1617 12.2809Z" fill="#359740"/>
<path d="M30.4254 17.1489C30.2042 17.1489 29.7616 17.2596 29.2084 17.3702C28.6552 17.4809 27.9914 17.5915 27.4382 17.7021C25.4467 17.7021 24.0084 17.7021 23.234 17.7021C22.7914 17.7021 22.5701 17.5915 22.3489 17.3702C22.1276 17.2596 22.0169 16.9277 22.0169 16.4851C21.9063 15.7106 21.9063 14.2723 21.9063 12.1702C21.9063 11.8383 21.9063 11.7277 21.9063 11.617C21.9063 11.5064 22.0169 11.3958 22.1276 11.3958C22.2382 11.2851 22.4595 11.2851 22.7914 11.2851C23.4552 11.2851 24.451 11.2851 25.668 11.3958C26.5531 11.5064 27.1063 11.617 27.3276 11.617C27.9914 11.617 28.2127 11.0638 28.2127 9.95746C28.2127 8.85107 27.8808 8.29788 27.2169 8.29788C26.9957 8.29788 26.4425 8.40852 25.4467 8.51916C24.1191 8.6298 23.234 8.74043 22.5701 8.74043C22.2382 8.74043 22.0169 8.74043 21.9063 8.6298C21.7957 8.51916 21.7957 8.29788 21.685 7.96597C21.685 7.63405 21.685 6.63831 21.7957 4.86809C22.1276 3.98299 22.1276 3.54044 22.2382 3.31916C22.4595 3.09788 22.902 2.87661 23.6765 2.87661C25.2254 2.87661 26.5531 2.87661 27.5489 2.98724C27.7701 2.98724 28.102 3.09788 28.5446 3.20852C28.9871 3.31916 29.3191 3.31916 29.5403 3.31916C30.0935 3.31916 30.4254 2.76597 30.4254 1.77022C30.4254 0.774478 30.0935 0.331924 29.5403 0.331924C29.4297 0.331924 29.0978 0.331924 28.6552 0.331924C28.2127 0.331924 27.7701 0.331924 27.2169 0.442563C26.1106 0.442563 24.1191 0.553201 21.3531 0.553201C21.1318 0.553201 20.468 0.553201 19.4723 0.553201C18.4765 0.553201 17.9233 0.553201 17.702 0.553201C17.0382 0.553201 16.7063 0.885116 16.7063 1.54895C16.7063 1.54895 16.8169 1.9915 16.9276 2.98724C17.0382 3.87235 17.1489 4.97873 17.1489 6.19575C17.1489 9.29363 17.1489 12.5021 17.1489 15.7106C17.1489 16.5958 17.0382 17.3702 17.0382 18.034C16.9276 18.6979 16.9276 19.1404 16.9276 19.3617C16.9276 20.1362 17.4808 20.4681 18.4765 20.4681C19.4723 20.4681 21.2425 20.4681 23.6765 20.3575C24.3403 20.3575 25.0042 20.3575 25.7786 20.3575C26.4425 20.3575 26.9957 20.3575 27.2169 20.3575C27.5489 20.3575 27.9914 20.3575 28.5446 20.4681C29.0978 20.4681 29.4297 20.5787 29.651 20.5787C30.5361 20.5787 31.0893 20.0255 31.1999 18.9192C31.1999 18.4766 31.1999 18.1447 31.1999 17.9234C31.1999 17.7021 31.0893 17.4809 30.9786 17.3702C30.9786 17.1489 30.7574 17.1489 30.4254 17.1489Z" fill="#359740"/>
<path d="M46.8 17.1489C46.5788 17.1489 46.1362 17.2596 45.583 17.3702C45.0298 17.4809 44.366 17.5915 43.8128 17.7021C41.7107 17.7021 40.383 17.7021 39.6086 17.7021C39.166 17.7021 38.9447 17.5915 38.7234 17.3702C38.5022 17.2596 38.3915 16.9277 38.3915 16.4851C38.2809 15.7106 38.2809 14.2723 38.2809 12.1702C38.2809 11.8383 38.2809 11.7277 38.2809 11.617C38.2809 11.5064 38.3915 11.3957 38.5022 11.3957C38.6128 11.2851 38.8341 11.2851 39.166 11.2851C39.8298 11.2851 40.8256 11.2851 42.0426 11.3957C42.9277 11.5064 43.4809 11.617 43.7022 11.617C44.366 11.617 44.5873 11.0638 44.5873 9.95745C44.5873 8.85106 44.2554 8.29787 43.5915 8.29787C43.3703 8.29787 42.8171 8.40851 41.8213 8.51915C40.4937 8.62979 39.6086 8.74043 38.9447 8.74043C38.6128 8.74043 38.3915 8.74043 38.2809 8.62979C38.1703 8.51915 38.1703 8.29787 38.0596 7.96596C38.0596 7.63404 38.0596 6.6383 38.1703 4.86809C38.1703 4.09362 38.2809 3.65106 38.3915 3.54043C38.6128 3.31915 39.0554 3.09787 39.8298 3.09787C41.3788 3.09787 42.7064 3.09787 43.7022 3.20851C43.9234 3.20851 44.2554 3.31915 44.6979 3.42979C45.1405 3.54043 45.4724 3.54043 45.6937 3.54043C46.2469 3.54043 46.5788 2.98723 46.5788 1.99149C46.5788 0.995745 46.2469 0.553192 45.6937 0.553192C45.583 0.553192 45.2511 0.553192 44.8086 0.553192C44.366 0.553192 43.9234 0.553192 43.3703 0.66383C42.2639 0.66383 40.2724 0.774469 37.5064 0.774469C37.2852 0.774469 36.6213 0.774469 35.6256 0.774469C34.6298 0.774469 34.0766 0.774469 33.8554 0.774469C33.1915 0.774469 32.8596 1.10638 32.8596 1.77021C32.8596 1.77021 32.9703 2.21277 33.0809 3.20851C33.1915 4.09362 33.3022 5.2 33.3022 6.41702C33.3022 9.51489 33.3022 12.7234 33.3022 15.9319C33.3022 16.817 33.1915 17.5915 33.1915 18.2553C33.0809 18.9191 33.0809 19.3617 33.0809 19.583C33.0809 20.3574 33.6341 20.6894 34.6298 20.6894C35.6256 20.6894 37.3958 20.6894 39.8298 20.5787C40.4937 20.5787 41.1575 20.5787 41.932 20.5787C42.5958 20.5787 43.149 20.5787 43.3703 20.5787C43.7022 20.5787 44.1447 20.5787 44.6979 20.6894C45.2511 20.6894 45.583 20.8 45.8043 20.8C46.6894 20.8 47.2426 20.2468 47.3532 19.1404C47.3532 18.6979 47.3532 18.366 47.3532 18.1447C47.3532 17.9234 47.2426 17.7021 47.132 17.5915C47.3532 17.1489 47.132 17.1489 46.8 17.1489Z" fill="#359740"/>
<path d="M84.417 18.034C84.1957 17.8128 83.9744 17.5915 83.8638 17.3702C83.6425 17.0383 83.5319 16.3745 83.2 15.2681C82.868 14.1617 82.7574 13.4979 82.5361 13.0553C82.2042 12.0596 81.4297 11.5064 80.434 11.1745C79.9914 11.0638 79.8808 10.9532 79.8808 10.8426C79.8808 10.8426 80.1021 10.7319 80.5446 10.5106C80.7659 10.4 80.9872 10.2894 81.2085 10.1787C81.4297 10.0681 81.7617 9.84681 82.0936 9.51489C82.4255 9.18298 82.7574 8.74042 82.9787 8.07659C83.2 7.41276 83.3106 6.6383 83.3106 5.86383C83.3106 4.86808 83.0893 3.98298 82.7574 3.31915C82.4255 2.54468 81.9829 2.10213 81.5404 1.65957C81.0978 1.32766 80.5446 0.995742 79.8808 0.774466C79.217 0.553189 78.7744 0.442551 78.3319 0.442551C78 0.442551 77.5574 0.442551 77.1148 0.442551C76.7829 0.442551 75.8978 0.442551 74.6808 0.553189C73.4638 0.553189 72.3574 0.663827 71.5829 0.663827C71.3617 0.663827 71.0297 0.663827 70.6978 0.663827C70.3659 0.663827 70.034 0.663827 69.8127 0.663827C68.9276 0.663827 68.5957 0.995742 68.5957 1.77021C68.5957 2.21276 68.7063 2.76595 68.817 3.42978C68.9276 3.98298 69.0383 4.64681 69.0383 5.08936C69.2595 8.85106 69.2595 12.0596 69.1489 14.6043C69.1489 15.1574 69.0383 15.7106 69.0383 16.2638C68.9276 16.817 68.9276 17.1489 68.9276 17.2596C68.9276 17.4808 68.817 17.8128 68.817 18.2553C68.7063 18.6979 68.7063 19.0298 68.7063 19.3617C68.7063 19.6936 68.9276 19.9149 69.4808 20.2468C69.9234 20.4681 70.5872 20.5787 71.4723 20.5787C72.3574 20.5787 73.0212 20.4681 73.3532 20.2468C73.7957 20.0255 74.017 19.8043 74.017 19.4723C74.017 18.9191 74.017 18.1447 73.9063 17.1489C73.9063 16.9277 73.9063 16.7064 73.9063 16.4851C73.9063 16.2638 73.9063 15.9319 73.9063 15.6C73.9063 15.2681 73.9063 14.9362 73.9063 14.6043C73.9063 13.4979 73.9063 12.834 73.9063 12.5021C73.9063 12.2808 74.1276 12.0596 74.6808 12.0596C75.7872 12.0596 76.5617 12.1702 76.8936 12.5021C77.4468 13.0553 78 14.0511 78.2212 15.3787C78.5531 16.5957 78.8851 17.7021 79.217 18.5872C79.8808 20.0255 80.9872 20.6894 82.6468 20.6894C83.3106 20.6894 83.8638 20.5787 84.3063 20.2468C84.7489 19.9149 84.9702 19.583 84.9702 19.1404C84.9702 18.9191 84.8595 18.8085 84.7489 18.5872C84.8595 18.4766 84.7489 18.2553 84.417 18.034ZM78 8.51915C77.3361 8.9617 76.1191 9.18298 74.5702 9.07234C74.1276 9.07234 74.017 8.85106 74.017 8.51915V3.65106C74.017 3.42978 74.017 3.20851 74.1276 3.09787C74.2383 2.98723 74.4595 2.87659 74.6808 2.87659C76.1191 2.87659 77.2255 2.98723 78 3.42978C78.7744 3.87234 79.1063 4.64681 79.1063 5.97447C79.1063 7.30212 78.6638 8.07659 78 8.51915Z" fill="#359740"/>
<path d="M102.783 18.366C102.672 18.034 102.562 17.7021 102.34 17.2596C102.119 16.817 102.008 16.4851 101.898 16.3745C101.898 16.3745 101.787 15.9319 101.455 15.1574C101.234 14.383 100.902 13.4979 100.57 12.6128C100.238 11.7277 99.9063 10.7319 99.4638 9.51489C99.0212 8.29787 98.6893 7.30213 98.2468 6.30638C97.9148 5.31064 97.4723 4.42553 97.1404 3.65106C96.8085 2.8766 96.5872 2.21277 96.3659 1.99149C96.034 1.4383 95.8127 1.10638 95.4808 0.885107C95.1489 0.66383 94.817 0.553192 94.1531 0.553192C93.3787 0.553192 92.8255 0.885107 92.6042 1.54894C92.6042 1.65958 92.3829 2.21277 92.051 3.31915C91.9404 3.54043 91.4978 4.75745 90.7234 6.85957C89.9489 8.9617 89.0638 11.1745 88.068 13.4979C87.0723 15.8213 86.6297 17.1489 86.5191 17.4809C86.4085 17.7021 86.2978 18.034 86.1872 18.2553C86.0765 18.5872 85.9659 18.8085 85.8553 18.9191C85.8553 19.0298 85.7446 19.2511 85.7446 19.3617C85.7446 19.6936 85.8553 20.0255 86.0765 20.2468C86.2978 20.4681 86.851 20.5787 87.5148 20.5787C88.1787 20.5787 88.6212 20.5787 88.9531 20.4681C89.2851 20.3574 89.5063 20.2468 89.617 20.1362C89.7276 20.0255 89.7276 19.8043 89.7276 19.583C89.7276 19.2511 89.7276 18.5872 89.617 17.5915C89.5063 16.9277 89.617 16.3745 89.9489 15.8213C90.2808 15.2681 90.7233 14.9362 91.4978 14.9362C91.7191 14.9362 92.3829 14.9362 93.268 14.9362C94.2638 14.9362 94.9276 14.9362 95.4808 14.9362C96.1446 14.9362 96.5872 15.1574 96.8085 15.7106C97.1404 16.5957 97.3616 17.2596 97.4723 17.9234C97.4723 18.1447 97.4723 18.4766 97.4723 18.8085C97.4723 19.1404 97.4723 19.3617 97.4723 19.583C97.5829 20.0255 97.8042 20.3574 98.1361 20.4681C98.468 20.5787 99.2425 20.6894 100.349 20.6894C101.123 20.6894 101.787 20.5787 102.23 20.3574C102.672 20.1362 102.894 19.6936 102.783 19.2511C103.004 18.9191 102.894 18.5872 102.783 18.366ZM95.4808 12.3915C94.817 12.3915 94.2638 12.3915 93.7106 12.3915C93.1574 12.3915 92.6042 12.3915 92.2723 12.3915C91.9404 12.3915 91.7191 12.3915 91.6085 12.3915C91.4978 12.3915 91.4978 12.3915 91.4978 12.2809C91.4978 12.1702 91.4978 12.1702 91.4978 12.0596C92.3829 9.95745 92.9361 8.51915 93.268 7.74468C93.268 7.63404 93.3787 7.5234 93.4893 7.41277C93.5999 7.19149 93.7106 7.19149 93.7106 7.19149C93.8212 7.19149 93.9319 7.41277 94.0425 7.74468C94.0425 7.74468 94.1531 7.96596 94.2638 8.40851C94.4851 8.85106 94.5957 9.40426 94.9276 10.0681C95.1489 10.7319 95.3702 11.3957 95.5914 11.8383C95.7021 12.2809 95.7021 12.3915 95.4808 12.3915Z" fill="#359740"/>
<path d="M66.2724 5.97447C65.8298 4.75745 65.2766 3.87234 64.6128 3.20851C63.949 2.54468 63.2851 1.99149 62.4 1.54894C61.6256 1.10639 60.8511 0.774471 60.4085 0.663833C59.8554 0.553195 59.3022 0.442556 58.8596 0.442556C58.0851 0.331918 56.4256 0.442556 53.7702 0.553195C53.549 0.553195 52.9958 0.553195 52.2213 0.553195C51.4468 0.553195 50.8937 0.553195 50.6724 0.553195C50.3405 0.553195 50.1192 0.663833 49.8979 0.995748C49.7873 1.10639 49.6766 1.4383 49.6766 1.77022C49.6766 1.77022 49.6766 2.21277 49.7873 3.09788C49.8979 3.98298 49.8979 4.97873 49.8979 6.30639C49.8979 9.5149 49.8979 12.6128 49.8979 15.8213C49.8979 16.4851 49.8979 17.1489 49.8979 17.7021C49.8979 18.2553 49.8979 18.6979 49.8979 19.0298C49.8979 19.3617 49.8979 19.583 49.8979 19.6936C49.8979 20.2468 50.3405 20.5787 51.3362 20.5787C51.8894 20.5787 52.6639 20.5787 53.8809 20.5787C54.4341 20.5787 54.9873 20.5787 55.4298 20.5787C56.8681 16.5957 58.9703 12.1702 57.532 5.64256C59.5234 12.3915 57.6426 16.7064 56.2043 20.5787C56.4256 20.5787 56.6468 20.5787 56.8681 20.5787C58.1958 20.5787 59.3022 20.5787 60.1873 20.3575C61.0724 20.1362 62.1788 19.6936 63.2851 19.0298C63.7277 18.8085 64.0596 18.4766 64.3915 18.1447C64.7234 17.8128 65.166 17.2596 65.6085 16.5957C66.0511 15.9319 66.383 15.0468 66.7149 13.9404C66.9362 12.834 67.1575 11.617 67.1575 10.1787C67.0468 8.62979 66.8256 7.19149 66.2724 5.97447ZM57.3107 18.366C58.4171 15.7106 59.5234 11.5064 57.8639 6.30639C60.0766 8.96171 60.4085 12.834 59.966 14.7149C63.949 10.4 59.8554 5.42128 55.8724 3.20851C58.4171 7.96596 58.0851 12.3915 56.0937 17.7021C49.7873 13.3872 57.3107 7.96596 55.2086 2.10213C64.1703 5.86383 65.7192 14.383 57.3107 18.366Z" fill="#359740"/>
</svg>
